<svg width="62" height="78" viewBox="0 0 62 78" fill="none" xmlns="http://www.w3.org/2000/svg">
<path d="M42.3281 11.8086C42.3376 11.8156 42.3572 11.8346 42.3857 11.8756C42.4406 11.9566 42.5058 12.0936 42.5693 12.3126C42.9546 13.6396 42.8851 14.9826 42.9707 16.4856C43.0034 17.0606 43.1227 17.6086 43.3427 18.1456C43.6896 18.9926 43.8292 19.7916 43.7412 20.5306C43.6539 21.2616 43.3396 21.9656 42.7246 22.6266C42.1222 23.2746 41.781 23.9636 41.6621 24.7046C41.5446 25.4386 41.6498 26.1866 41.8769 26.9486C42.3681 28.5946 42.9273 30.1226 43.2324 31.7486C43.6961 34.2216 43.1466 36.5056 41.956 38.7216C41.0837 40.3456 40.072 42.0906 39.8964 44.1266C39.6347 47.1626 39.6268 50.2306 40.3232 53.2736C40.4219 53.7046 40.588 54.1166 40.8759 54.4576C41.169 54.8056 41.5626 55.0496 42.0625 55.1836C42.8071 55.3826 43.2464 55.9296 43.4785 56.8676L43.5908 57.3216L44.0517 57.2396C51.0317 56.0046 56.6785 52.8426 61.0703 47.7746C57.7963 54.0746 52.6486 58.5976 45.9023 61.5376C37.8258 65.0586 29.6075 64.9056 21.2421 61.7556L20.5517 61.4966L20.5664 62.2336C20.6289 65.4356 21.625 68.1166 23.4511 70.5616L23.456 70.5696L23.4619 70.5766C25.2758 72.8256 27.4436 74.5856 30.4238 75.0806C33.0165 75.5126 35.3396 74.8966 37.0947 72.7216C37.5131 72.2026 37.8538 71.9526 38.1191 71.8626C38.3471 71.7846 38.5637 71.8096 38.8251 71.9896C39.21 72.2546 39.4094 72.9706 38.7783 73.9596C37.5357 75.9076 35.6709 76.9246 33.4052 77.2076C29.0952 77.7476 25.6854 75.9036 22.7441 72.8236C19.8366 69.7786 18.3291 66.0506 17.7031 61.8876C17.2854 59.1106 17.013 56.3276 16.999 53.5326C16.977 49.1606 17.346 44.9066 19.081 40.8996C20.8601 36.7896 23.8644 33.8826 27.8623 31.8936C29.1199 31.2676 30.4427 30.6006 31.5732 29.6116C32.6649 28.6556 33.47 27.4926 33.7451 25.9696C33.9066 25.0746 33.7291 24.2456 33.0849 23.5786C31.7146 22.1596 31.0905 20.6146 31.5351 18.7006C31.6178 18.3436 31.5602 18.0116 31.496 17.7486C31.4214 17.4436 31.3605 17.2886 31.3251 17.0696C31.1159 15.7686 30.8614 14.6166 31.0498 13.4336C31.0804 13.2416 31.1166 13.1236 31.1484 13.0556C31.1525 13.0466 31.1568 13.0406 31.1601 13.0346C31.1677 13.0346 31.1773 13.0346 31.1884 13.0376C31.2641 13.0516 31.3822 13.0926 31.5585 13.1816C32.4254 13.6176 33.1648 14.2536 33.9677 14.9276C34.1852 15.1106 34.4248 15.2596 34.708 15.3336C34.9949 15.4096 35.2845 15.3966 35.5859 15.3216C36.5521 15.0806 37.5256 14.9596 38.4912 15.0416C38.8621 15.0736 39.208 15.0226 39.5185 14.8546C39.8258 14.6886 40.0529 14.4326 40.2324 14.1356C40.6934 13.3736 41.2267 12.6796 41.873 12.0986C42.0397 11.9486 42.1644 11.8686 42.25 11.8316C42.2928 11.8136 42.3174 11.8096 42.3281 11.8086ZM32.0009 43.4896C32.2991 43.8066 32.4962 44.0296 32.6953 44.2266C34.2997 45.8156 34.8742 47.7406 34.5888 49.9716C34.3733 51.6566 33.6541 53.1516 32.6084 54.5306C32.3814 54.8296 32.1659 55.1586 31.8906 55.5516L31.247 56.4706L32.3603 56.3336C32.7693 56.2836 33.132 56.2636 33.4462 56.1966C34.2456 56.0256 34.9464 55.9246 35.5585 56.0346C36.1356 56.1376 36.664 56.4336 37.1181 57.1466C37.299 57.4306 37.5801 57.5866 37.9013 57.5876C38.1833 57.5886 38.4442 57.4696 38.6523 57.3366L38.9863 57.1236L38.8544 56.7496L38.3935 55.4256C37.616 53.0046 37.0962 50.5156 36.6113 47.9936C36.28 46.2696 35.6216 44.6306 34.1308 43.4246C33.7189 43.0916 33.2315 42.7536 32.4296 42.6516L31.0498 42.4756L32.0009 43.4896Z" fill="#1F2937"/>
<path d="M12.5555 6.58655C18.8962 1.74555 25.8895 -0.506451 33.5506 0.0955491C27.281 1.16155 21.819 4.05755 17.2723 8.83555C11.8948 14.4865 9.33587 21.2845 9.45977 29.0935L9.48027 29.8526C9.66567 35.5786 11.382 40.7305 14.5994 45.3635C14.7903 45.6385 14.8936 45.8775 14.9412 46.1125C14.9891 46.3495 14.987 46.6135 14.9266 46.9485C14.1865 51.0535 14.1472 55.1745 14.6551 59.2945C14.4215 59.2115 14.1598 59.0916 13.8719 58.9276C13.3255 58.6156 12.7152 58.1696 12.0623 57.6086C10.7569 56.4876 9.31467 54.9376 7.91187 53.1716C5.09977 49.6316 2.50247 45.3006 1.48227 41.9476C-2.53653 28.7426 1.76827 14.8225 12.5555 6.58655Z" fill="#1F2937"/>
</svg>
