
<svg width="115" height="189" viewBox="0 0 115 100" fill="none" xmlns="http://www.w3.org/2000/svg">
<!-- 
 -->
<g mask="url(#mask0_9_13)">
<path d="M66.7468 14.7519C73.5109 14.5214 79.0054 19.8324 79.0056 26.6015V51.8359L79.5222 51.8183L85.4841 51.6152C92.2412 51.3849 97.7419 56.6958 97.7419 63.4648C97.7419 70.2432 92.2273 75.9534 85.4499 76.1845C78.6858 76.415 73.1913 71.1009 73.1911 64.3359V57.8515L72.6745 57.8691L60.7507 58.2753L60.2673 58.2919V83.4921C60.2673 90.2716 54.7517 95.9819 47.9743 96.2128C41.2143 96.4431 35.7165 91.1291 35.7165 84.3632V59.1288L35.1989 59.1464L29.238 59.3495C22.4768 59.5799 16.9792 54.2663 16.9792 47.497C16.9792 40.7178 22.4975 35.0112 29.2722 34.7802C35.9234 34.5537 41.3552 39.6958 41.5261 46.3134L41.53 46.6298V84.1308C41.53 87.6214 44.1711 91.2077 48.1647 90.9824C52.0533 90.7629 54.4548 87.2035 54.4548 83.7245V27.4726C54.4548 20.6902 59.9692 14.9831 66.7468 14.7519ZM85.4499 57.4335L79.488 57.6367L79.0056 57.6533V64.1035C79.0057 67.6754 81.9146 70.4877 85.4841 70.3661C89.0402 70.2448 91.9282 67.2558 91.9284 63.6972C91.9284 60.2361 89.1987 57.4886 85.7829 57.4306L85.4499 57.4335ZM29.238 40.5995C25.682 40.7208 22.7937 43.7057 22.7936 47.2646C22.7936 50.8404 25.7022 53.6529 29.2722 53.5312L35.2331 53.3281L35.7165 53.3115V46.8613L35.7077 46.5283C35.5306 43.1168 32.6931 40.4819 29.238 40.5995ZM66.7126 20.5722C63.1555 20.6935 60.2674 23.6817 60.2673 27.2402V52.4745L60.7839 52.457L72.7087 52.0507L73.1911 52.0341V26.8339C73.191 23.2619 70.2821 20.4505 66.7126 20.5722Z" fill="#000000ce" />
<!-- <path d="M16.4792 47.4971C16.4792 40.4482 22.2108 34.5203 29.2548 34.2802C36.2945 34.0402 42.0271 39.5774 42.0302 46.6292V52.596V60.4271V84.1309C42.0302 87.42 44.5085 90.6879 48.1364 90.4832C51.6911 90.2826 53.9543 87.0137 53.9543 83.7245V59.0074V52.1897V27.4727C53.9543 20.4207 59.6828 14.4929 66.7299 14.2526C73.7768 14.0125 79.5053 19.5498 79.5053 26.6017V51.3188L85.4669 51.1156C92.5066 50.8756 98.2423 56.4128 98.2423 63.4648C98.2423 70.5126 92.5138 76.4444 85.4669 76.6847C78.4199 76.9248 72.6913 71.3833 72.6913 64.3355V58.3687L60.7672 58.7752V83.4922C60.7672 90.5411 55.0387 96.4721 47.9918 96.7122C40.9489 96.9523 35.2162 91.412 35.2162 84.3632V59.646L29.2548 59.8493C22.2108 60.0893 16.4792 54.549 16.4792 47.4971ZM35.2162 46.8615C35.2131 43.5724 32.5386 40.987 29.2548 41.0989C25.9678 41.211 23.2932 43.9756 23.2932 47.2648C23.2932 50.5581 25.9678 53.1436 29.2548 53.0315L35.2162 52.8283V46.8615ZM72.6913 26.834C72.6913 23.5447 70.0167 20.9594 66.7299 21.0715C63.442 21.1834 60.7672 23.9512 60.7672 27.2404V51.9574L72.6913 51.5511V26.834ZM79.5053 58.1366V64.1032C79.5053 67.3925 82.1801 69.9779 85.4669 69.866C88.7538 69.7539 91.4284 66.9862 91.4284 63.6969C91.4284 60.4067 88.7538 57.8213 85.4669 57.9333L79.5053 58.1366Z" /> -->
</g>
</svg>
